<?xml version="1.0" encoding="UTF-8" standalone="no"?>
<!-- Created with Inkscape (http://www.inkscape.org/) -->

<svg
   width="512"
   height="512"
   viewBox="0 0 512 512"
   version="1.1"
   id="svg1"
   sodipodi:docname="Voice Zero - Icon.svg"
   inkscape:version="1.4.3 (0d15f75042, 2025-12-25)"
   xmlns:inkscape="http://www.inkscape.org/namespaces/inkscape"
   xmlns:sodipodi="http://sodipodi.sourceforge.net/DTD/sodipodi-0.dtd"
   xmlns="http://www.w3.org/2000/svg"
   xmlns:svg="http://www.w3.org/2000/svg">
  <sodipodi:namedview
     id="namedview1"
     pagecolor="#ffffff"
     bordercolor="#111111"
     borderopacity="1"
     inkscape:showpageshadow="0"
     inkscape:pageopacity="0"
     inkscape:pagecheckerboard="1"
     inkscape:deskcolor="#d1d1d1"
     inkscape:document-units="px"
     inkscape:zoom="1.5976562"
     inkscape:cx="256"
     inkscape:cy="256"
     inkscape:window-width="1920"
     inkscape:window-height="1020"
     inkscape:window-x="1920"
     inkscape:window-y="0"
     inkscape:window-maximized="1"
     inkscape:current-layer="layer1" />
  <defs
     id="defs1">
    <rect
       x="115.79462"
       y="98.268949"
       width="319.84352"
       height="340.49878"
       id="rect1" />
    <filter
       inkscape:collect="always"
       style="color-interpolation-filters:sRGB"
       id="filter4"
       x="-0.067514635"
       y="-0.048131049"
       width="1.1350293"
       height="1.0962621">
      <feGaussianBlur
         inkscape:collect="always"
         stdDeviation="4.6106649"
         id="feGaussianBlur4" />
    </filter>
    <filter
       inkscape:collect="always"
       style="color-interpolation-filters:sRGB"
       id="filter5"
       x="-0.021526476"
       y="-0.015346182"
       width="1.043053"
       height="1.0306924">
      <feGaussianBlur
         inkscape:collect="always"
         stdDeviation="0.93365965"
         id="feGaussianBlur5" />
    </filter>
    <clipPath
       id="Clip_1">
      <path
         d="m 289.514,395.312 v 146.403 c -9.102,5.383 -22.483,3.915 -31.901,0.005 V 395.312 Z"
         id="path2" />
    </clipPath>
    <linearGradient
       id="Gradient_1"
       gradientUnits="userSpaceOnUse"
       x1="257.61301"
       y1="470.22699"
       x2="289.53"
       y2="470.22699">
      <stop
         offset="0"
         stop-color="#1B1A19"
         id="stop1" />
      <stop
         offset="1"
         stop-color="#FFFFFE"
         id="stop2" />
    </linearGradient>
    <clipPath
       id="Clip_2">
      <path
         d="m 298.002,33.663 c 9.777,0.481 19.134,3.425 27.962,7.49 15.867,7.938 45.468,25.569 52.749,33.777 7.29,8.208 11.925,17.37 11.313,26.667 l 0.054,17.64 -2.205,1.242 -0.54,4.806 1.584,2.052 -0.36,8.307 -1.494,1.035 -0.45,5.319 1.395,1.638 -0.423,8.928 -1.323,0.675 -0.423,5.841 1.305,1.377 -0.432,8.721 -2.196,0.72 -0.369,4.59 1.872,2.385 -0.432,8.1 -2.745,0.729 -0.387,4.5 2.286,2.151 -0.594,10.224 -1.341,0.351 -0.351,4.815 1.53,2.268 -0.522,9.387 -1.539,0.549 -0.306,4.509 1.566,1.701 -0.729,13.275 -3.744,0.819 v 1.566 l 3.744,2.538 c 0,0 0.054,28.098 -2.61,33.633 -2.673,5.535 -6.57,20.241 -28.305,24.066 -21.744,3.834 -53.739,5.742 -53.739,5.742 l -50.598,-5.742 c -21.33,-2.187 -54.765,-18.801 -59.139,-26.73 -4.374,-7.938 0,-45.468 0,-45.468 l 4.311,-2.124 0.63,-6.903 -4.05,0.621 0.972,-9.783 3.951,-1.503 0.495,-5.391 -3.258,0.756 1.278,-10.197 2.646,-1.233 0.405,-4.239 -2.457,-0.108 0.981,-7.731 1.89,-1.251 0.621,-6.03 -1.44,-0.198 1.269,-10.179 2.835,-1.134 0.432,-5.841 -2.178,0.612 1.179,-9.927 2.412,-1.665 0.333,-5.607 -2.025,1.098 1.242,-10.503 2.367,-0.936 0.063,-4.968 -1.827,0.72 1.224,-10.206 1.836,-0.738 0.576,-4.851 h -1.872 c 0,0 2.187,-22.905 4.644,-28.647 1.89,-4.41 3.672,-12.078 15.021,-20.232 0.099,-0.063 0.054,0.333 0.054,0.738 -0.009,0.441 0.027,0.891 0.333,0.684 0.585,-0.387 2.16,-1.017 2.997,-1.872 0.873,-0.882 1.008,-2.421 1.35,-2.628 2.475,-1.467 5.301,-2.934 8.514,-4.392 0,0 -0.198,1.737 0.072,1.62 0.657,-0.306 3.024,-0.648 4.275,-1.539 0.666,-0.477 0.612,-2.124 0.612,-2.124 3.447,-1.935 7.011,-3.33 9.801,-4.545 0,0 0.027,0.999 0.288,0.882 0.927,-0.405 3.078,-1.107 3.51,-1.35 0.333,-0.18 0.621,-1.449 0.621,-1.449 3.222,-1.386 6.282,-2.673 9.153,-3.852 0,0 -0.117,1.458 0.288,1.296 1.134,-0.468 3.186,-0.594 4.545,-1.539 0.747,-0.531 1.476,-2.268 1.476,-2.268 2.529,-0.99 4.86,-1.854 6.966,-2.583 0,0 -0.27,1.656 0.63,1.368 0.72,-0.225 2.88,-0.333 4.122,-1.134 1.071,-0.693 1.242,-2.115 1.746,-2.241 1.026,-0.261 1.926,-0.45 2.7,-0.567 2.014,-0.312 1.088,-0.192 2.775,-0.38 h 0.707 c -0.013,0.531 -0.039,1.062 0.1,1.577 1.242,-0.063 3.78,0.081 5.337,-0.306 0.554,-0.284 0.757,-0.583 0.873,-1.271 z"
         id="path4" />
    </clipPath>
    <linearGradient
       id="Gradient_2"
       gradientUnits="userSpaceOnUse"
       x1="186.164"
       y1="170.784"
       x2="390.12701"
       y2="170.784">
      <stop
         offset="0"
         stop-color="#1B1A19"
         id="stop3" />
      <stop
         offset="1"
         stop-color="#FFFFFE"
         id="stop4" />
    </linearGradient>
    <clipPath
       id="Clip_3">
      <path
         d="m 289.524,365.242 c 0.701,1.064 0.917,2.279 1.079,3.511 0.424,1.932 3.198,1.589 3.716,3.482 v 0.073 c -0.483,1.967 -3.168,1.477 -3.716,3.483 0.424,1.932 3.198,1.589 3.716,3.482 v 0.074 c -0.478,1.972 -3.168,1.484 -3.716,3.491 0.424,1.932 3.198,1.589 3.716,3.482 v 0.074 c -0.478,1.972 -3.167,1.484 -3.716,3.491 0.422,1.937 3.199,1.601 3.716,3.5 v 0.105 c -0.382,1.86 -3.624,0.608 -3.905,2.542 -3.825,1.872 -26.865,3.312 -34.047,-0.621 0,-1.764 -4.302,-3.762 -4.302,-5.526 0,-1.764 3.726,-1.764 3.726,-3.528 0,-1.764 -3.726,-1.764 -3.726,-3.519 0,-1.764 3.726,-1.764 3.726,-3.528 0,-1.764 -3.726,-1.764 -3.726,-3.519 0,-1.764 3.726,-1.764 3.726,-3.519 0,-1.764 -3.726,-1.764 -3.726,-3.519 0.429,-2.002 3.175,-1.513 3.721,-3.511 z"
         id="path6" />
    </clipPath>
    <linearGradient
       id="Gradient_3"
       gradientUnits="userSpaceOnUse"
       x1="252.062"
       y1="381.58301"
       x2="294.32001"
       y2="381.58301">
      <stop
         offset="0"
         stop-color="#1B1A19"
         id="stop5" />
      <stop
         offset="1"
         stop-color="#FFFFFE"
         id="stop6" />
    </linearGradient>
    <linearGradient
       id="Gradient_4"
       gradientUnits="userSpaceOnUse"
       x1="243.64301"
       y1="357.85101"
       x2="303.94501"
       y2="357.85101">
      <stop
         offset="0"
         stop-color="#1B1A19"
         id="stop7" />
      <stop
         offset="1"
         stop-color="#FFFFFE"
         id="stop8" />
    </linearGradient>
    <clipPath
       id="Clip_4">
      <path
         d="m 261.637,287.115 37.255,2.636 c 0,0 0.549,38.556 0,39.924 -0.54,1.368 -3.555,8.208 -3.555,8.208 v 12.573 h -43.272 v -11.484 l -4.959,-4.374 v -42.39 l 14.363,-5.093 z"
         id="path10" />
    </clipPath>
    <linearGradient
       id="Gradient_5"
       gradientUnits="userSpaceOnUse"
       x1="247.091"
       y1="318.79199"
       x2="299.11899"
       y2="318.79199">
      <stop
         offset="0"
         stop-color="#1B1A19"
         id="stop9" />
      <stop
         offset="1"
         stop-color="#FFFFFE"
         id="stop10" />
    </linearGradient>
  </defs>
  <g
     inkscape:label="Layer 1"
     inkscape:groupmode="layer"
     id="layer1">
    <path
       style="opacity:1;fill:#000000;fill-opacity:1;stroke:none;stroke-width:3.78;stroke-opacity:1;paint-order:markers fill stroke"
       id="path5"
       sodipodi:type="arc"
       sodipodi:cx="256"
       sodipodi:cy="256"
       sodipodi:rx="93.261612"
       sodipodi:ry="207.17848"
       sodipodi:start="0"
       sodipodi:end="6.2676914"
       sodipodi:open="true"
       sodipodi:arc-type="arc"
       d="M 349.26161,256 A 93.261612,207.17848 0 0 1 256.36125,463.17693 93.261612,207.17848 0 0 1 162.74119,257.60499 93.261612,207.17848 0 0 1 254.91628,48.835506 93.261612,207.17848 0 0 1 349.25042,252.79012" />
    <g
       id="g108"
       transform="matrix(0.55,0,0,0.55,104.5707,142.43628)">
      <g
         clip-path="url(#Clip_1)"
         id="g22">
        <path
           d="m 289.514,395.312 v 146.403 c -9.101,5.383 -22.483,3.915 -31.901,0.005 V 395.312 Z"
           fill="url(#Gradient_1)"
           id="path22"
           style="fill:url(#Gradient_1)" />
      </g>
      <path
         d="m 259.239,540.635 c 7.653,3.097 21.305,4.51 28.636,0.18 V 396.953 h -28.636 z m 16.087,6.169 c -6.878,0 -13.916,-1.551 -18.406,-3.594 l -0.962,-0.438 V 393.671 h 35.199 v 148.911 l -0.714,0.488 c -3.924,2.687 -9.466,3.734 -15.117,3.734"
         fill="#0b0b09"
         id="path23" />
      <path
         d="m 277.383,541.324 -1.092,-146.405 3.281,-0.025 1.092,146.406 -3.281,0.024"
         fill="#b6b8b5"
         id="path24" />
      <g
         clip-path="url(#Clip_2)"
         id="g25">
        <path
           d="m 298.004,33.663 c 9.776,0.481 19.133,3.425 27.96,7.49 15.867,7.938 45.468,25.569 52.749,33.777 7.29,8.208 11.925,17.37 11.313,26.667 l 0.054,17.64 -2.205,1.242 -0.54,4.806 1.584,2.052 -0.36,8.307 -1.494,1.035 -0.45,5.319 1.395,1.638 -0.423,8.928 -1.323,0.675 -0.423,5.841 1.305,1.377 -0.432,8.721 -2.196,0.72 -0.369,4.59 1.872,2.385 -0.432,8.1 -2.745,0.729 -0.387,4.5 2.286,2.151 -0.594,10.224 -1.341,0.351 -0.351,4.815 1.53,2.268 -0.522,9.387 -1.539,0.549 -0.306,4.509 1.566,1.701 -0.729,13.275 -3.744,0.819 v 1.566 l 3.744,2.538 c 0,0 0.054,28.098 -2.61,33.633 -2.673,5.535 -6.57,20.241 -28.305,24.066 -21.744,3.834 -53.739,5.742 -53.739,5.742 l -50.598,-5.742 c -21.33,-2.187 -54.765,-18.801 -59.139,-26.73 -4.374,-7.938 0,-45.468 0,-45.468 l 4.311,-2.124 0.63,-6.903 -4.05,0.621 0.972,-9.783 3.951,-1.503 0.495,-5.391 -3.258,0.756 1.278,-10.197 2.646,-1.233 0.405,-4.239 -2.457,-0.108 0.981,-7.731 1.89,-1.251 0.621,-6.03 -1.44,-0.198 1.269,-10.179 2.835,-1.134 0.432,-5.841 -2.178,0.612 1.179,-9.927 2.412,-1.665 0.333,-5.607 -2.025,1.098 1.242,-10.503 2.367,-0.936 0.063,-4.968 -1.827,0.72 1.224,-10.206 1.836,-0.738 0.576,-4.851 h -1.872 c 0,0 2.187,-22.905 4.644,-28.647 1.89,-4.41 3.672,-12.078 15.021,-20.232 0.099,-0.063 0.054,0.333 0.054,0.738 -0.009,0.441 0.027,0.891 0.333,0.684 0.585,-0.387 2.16,-1.017 2.997,-1.872 0.873,-0.882 1.008,-2.421 1.35,-2.628 2.475,-1.467 5.301,-2.934 8.514,-4.392 0,0 -0.198,1.737 0.072,1.62 0.657,-0.306 3.024,-0.648 4.275,-1.539 0.666,-0.477 0.612,-2.124 0.612,-2.124 3.447,-1.935 7.011,-3.33 9.801,-4.545 0,0 0.027,0.999 0.288,0.882 0.927,-0.405 3.078,-1.107 3.51,-1.35 0.333,-0.18 0.621,-1.449 0.621,-1.449 3.222,-1.386 6.282,-2.673 9.153,-3.852 0,0 -0.117,1.458 0.288,1.296 1.134,-0.468 3.186,-0.594 4.545,-1.539 0.747,-0.531 1.476,-2.268 1.476,-2.268 2.529,-0.99 4.86,-1.854 6.966,-2.583 0,0 -0.27,1.656 0.63,1.368 0.72,-0.225 2.88,-0.333 4.122,-1.134 1.071,-0.693 1.242,-2.115 1.746,-2.241 1.026,-0.261 1.926,-0.45 2.7,-0.567 2.014,-0.312 1.088,-0.192 2.774,-0.38 h 0.708 c -0.013,0.531 -0.039,1.062 0.1,1.577 1.242,-0.063 3.78,0.081 5.337,-0.306 0.555,-0.284 0.757,-0.583 0.873,-1.271 z"
           fill="url(#Gradient_2)"
           id="path25"
           style="fill:url(#Gradient_2)" />
      </g>
      <path
         d="m 297.898,309.435 -0.194,-3.275 c 0.318,-0.019 32.154,-1.954 53.549,-5.721 18.539,-3.266 23.497,-14.82 26.163,-21.025 0.345,-0.804 0.654,-1.526 0.95,-2.138 1.981,-4.113 2.436,-23.747 2.454,-32.053 l -3.747,-2.531 v -3.764 l 3.818,-0.837 0.622,-11.329 -1.577,-1.715 0.43,-6.279 1.523,-0.548 0.433,-7.753 -1.538,-2.28 0.466,-6.554 1.332,-0.345 0.483,-8.265 -2.307,-2.17 0.55,-6.44 2.704,-0.72 0.335,-6.29 -1.884,-2.404 0.51,-6.314 2.159,-0.712 0.336,-6.899 -1.313,-1.398 0.544,-7.475 1.294,-0.663 0.35,-7.327 -1.423,-1.665 0.574,-6.774 1.464,-1.014 0.296,-6.889 -1.629,-2.107 0.716,-6.298 2.097,-1.186 -0.051,-16.679 c 0.54,-8.256 -3.13,-16.825 -10.9,-25.579 -6.976,-7.858 -36.07,-25.306 -52.252,-33.395 -10.964,-5.483 -21.628,-6.981 -27.667,-7.363 -0.344,0.583 -0.873,1.077 -1.626,1.264 -1.304,0.327 -3.022,0.332 -4.401,0.336 -0.481,10e-4 -0.913,0.002 -1.245,0.02 l -0.712,0.036 -0.525,-0.501 c -0.279,-0.269 -0.434,-0.556 -0.516,-1.01 -0.323,0.047 -0.639,0.098 -0.94,0.146 l -0.739,0.115 c -0.579,0.087 -1.263,0.225 -2.041,0.411 l -0.013,0.028 c -0.309,0.594 -0.775,1.493 -1.739,2.118 -1.159,0.752 -2.668,1.002 -3.772,1.185 -0.313,0.052 -0.576,0.088 -0.743,0.138 -0.735,0.235 -1.466,0.096 -2.01,-0.374 -0.134,-0.117 -0.25,-0.244 -0.344,-0.38 -1.406,0.506 -2.923,1.072 -4.533,1.693 -0.363,0.733 -0.98,1.782 -1.742,2.319 -1.13,0.796 -2.51,1.116 -3.62,1.375 -0.496,0.115 -0.965,0.224 -1.253,0.341 -0.578,0.236 -1.22,0.159 -1.721,-0.208 -0.135,-0.099 -0.252,-0.213 -0.354,-0.341 -2.115,0.876 -4.322,1.806 -6.613,2.787 -0.427,1.256 -0.937,1.545 -1.177,1.679 -0.339,0.193 -0.905,0.399 -1.96,0.781 -0.633,0.228 -1.294,0.465 -1.702,0.642 l -0.802,0.351 -0.829,-0.48 -0.154,-0.109 c -0.112,0.048 -0.224,0.094 -0.335,0.143 -2.183,0.929 -4.629,1.97 -7.036,3.259 -0.109,0.841 -0.42,1.864 -1.255,2.458 -1.095,0.779 -2.624,1.178 -3.74,1.468 -0.347,0.091 -0.641,0.159 -0.815,0.231 l -0.848,0.35 -0.841,-0.526 c -0.192,-0.138 -0.338,-0.295 -0.453,-0.474 -2.098,1.009 -4.073,2.053 -5.897,3.118 l -0.039,0.121 c -0.231,0.667 -0.576,1.678 -1.353,2.466 -0.767,0.778 -1.852,1.34 -2.642,1.751 -0.256,0.132 -0.478,0.242 -0.621,0.337 -0.595,0.397 -1.305,0.433 -1.901,0.101 -0.096,-0.054 -0.184,-0.114 -0.265,-0.178 -8.011,6.317 -10.32,12.252 -11.881,16.273 -0.265,0.681 -0.511,1.314 -0.759,1.893 -1.775,4.138 -3.59,19.047 -4.346,26.359 h 1.914 l -0.914,7.655 -1.835,0.738 -0.78,6.507 1.541,-0.608 -0.111,8.519 -2.472,0.977 -0.76,6.382 1.832,-0.996 -0.55,9.36 -2.462,1.694 -0.801,6.753 2.074,-0.583 -0.688,9.203 -2.885,1.149 -0.948,7.618 1.402,0.193 -0.858,8.37 -1.914,1.272 -0.66,5.213 2.406,0.11 -0.662,6.89 -2.674,1.246 -0.873,6.963 3.181,-0.743 -0.8,8.679 -3.96,1.507 -0.662,6.662 4.033,-0.619 -0.903,9.918 -4.334,2.13 c -1.224,10.932 -3.381,37.638 -0.092,43.597 3.958,7.17 36.614,23.712 57.875,25.892 l -0.335,3.265 c -21.751,-2.231 -55.59,-18.83 -60.414,-27.573 -4.499,-8.155 -0.647,-42.552 -0.192,-46.447 l 0.102,-0.89 4.288,-2.107 0.357,-3.905 -4.067,0.624 1.278,-12.891 3.946,-1.501 0.195,-2.11 -3.339,0.78 1.684,-13.44 2.619,-1.22 0.152,-1.586 -2.512,-0.115 1.295,-10.232 1.876,-1.245 0.377,-3.676 -1.474,-0.203 1.59,-12.757 2.783,-1.108 0.184,-2.485 -2.288,0.645 1.555,-13.104 2.364,-1.627 0.109,-1.862 -2.218,1.206 1.739,-14.629 2.248,-0.887 0.019,-1.43 -2.111,0.831 1.669,-13.898 1.835,-0.737 0.245,-2.052 h -1.836 l 0.172,-1.796 c 0.09,-0.946 2.242,-23.228 4.774,-29.138 0.235,-0.548 0.468,-1.146 0.718,-1.791 1.816,-4.671 4.56,-11.729 14.855,-19.122 l 0.829,-0.597 0.929,0.478 c 0.244,0.129 0.425,0.291 0.555,0.468 0.34,-0.2 0.656,-0.414 0.863,-0.624 0.252,-0.256 0.445,-0.817 0.584,-1.225 0.213,-0.624 0.434,-1.269 1.093,-1.658 2.612,-1.548 5.53,-3.055 8.673,-4.48 l 2.632,-1.193 -0.241,2.13 c 0.556,-0.164 1.123,-0.362 1.517,-0.593 0.056,-0.199 0.096,-0.566 0.089,-0.84 l -0.023,-0.987 0.86,-0.492 c 2.814,-1.579 5.644,-2.785 8.144,-3.849 0.627,-0.267 1.233,-0.524 1.803,-0.774 l 2.242,-0.978 0.024,1.11 c 0.339,-0.122 0.76,-0.274 1.063,-0.392 0.053,-0.158 0.11,-0.356 0.151,-0.523 l 0.187,-0.806 0.762,-0.331 c 3.227,-1.387 6.296,-2.677 9.179,-3.858 l 2.478,-1.013 -0.144,1.731 c 0.795,-0.188 1.634,-0.412 2.171,-0.791 0.192,-0.163 0.647,-0.938 0.904,-1.556 l 0.268,-0.647 0.653,-0.253 c 2.586,-1.003 4.95,-1.876 7.023,-2.594 l 2.596,-0.9 -0.312,1.932 c 0.733,-0.128 1.629,-0.316 2.116,-0.632 0.236,-0.152 0.426,-0.518 0.611,-0.873 0.292,-0.565 0.692,-1.34 1.625,-1.577 1.104,-0.282 2.041,-0.477 2.861,-0.599 l 0.701,-0.11 c 0.842,-0.135 1.889,-0.303 2.917,-0.37 l 1.774,-0.117 -0.024,1.753 c 0.972,-0.003 2.183,-0.017 3.045,-0.163 l 0.007,-0.03 0.162,-1.535 1.542,0.067 c 6.007,0.268 17.915,1.631 30.196,7.77 14.383,7.192 45.345,25.259 53.239,34.153 8.375,9.435 12.32,18.809 11.725,27.861 l 0.058,18.488 -2.312,1.306 -0.377,3.312 1.548,2 -0.418,9.719 -1.534,1.061 -0.326,3.868 1.379,1.613 -0.504,10.522 -1.344,0.688 -0.303,4.198 1.282,1.364 -0.517,10.543 -2.228,0.736 -0.232,2.864 1.852,2.364 -0.529,9.903 -2.78,0.74 -0.217,2.561 2.265,2.133 -0.709,12.181 -1.363,0.352 -0.218,3.073 1.521,2.256 -0.616,11.024 -1.551,0.558 -0.187,2.734 1.56,1.696 -0.835,15.205 -2.983,0.654 3.052,2.06 10e-4,0.87 c 0.005,2.914 -0.028,28.64 -2.778,34.351 -0.278,0.576 -0.567,1.254 -0.891,2.007 -2.909,6.777 -8.324,19.392 -28.608,22.964 -21.585,3.802 -53.604,5.746 -53.926,5.765"
         fill="#0b0b09"
         id="path26" />
      <path
         d="m 309.288,39.276 c -1.117,24.625 -3.044,49.122 -5.028,73.602 -2.034,24.47 -4.274,48.906 -6.404,73.315 -0.545,6.101 -1.064,12.202 -1.545,18.3 -0.519,6.096 -0.963,12.193 -1.391,18.28 -0.435,6.087 -0.775,12.173 -1.022,18.226 -0.123,3.026 -0.191,6.046 -0.186,9.031 -0.002,2.976 0.065,5.965 0.372,8.718 0.169,1.342 0.392,2.663 0.711,3.391 0.503,1.089 1.118,2.191 1.92,3.244 1.574,2.126 3.634,4.087 5.85,5.93 4.473,3.681 9.704,6.72 15.044,9.511 5.348,2.827 10.927,5.297 16.574,7.644 2.822,1.18 5.678,2.298 8.55,3.376 2.863,1.114 5.759,2.143 8.669,3.16 -6.095,-0.965 -12.119,-2.346 -18.098,-3.952 -5.983,-1.604 -11.878,-3.564 -17.709,-5.832 -5.786,-2.379 -11.508,-5.065 -16.894,-8.739 -2.688,-1.841 -5.275,-3.969 -7.562,-6.629 -1.15,-1.318 -2.179,-2.828 -3.068,-4.476 -1.03,-2.046 -1.305,-3.804 -1.641,-5.477 -1.057,-6.605 -1.157,-12.784 -1.213,-19.039 -0.055,-6.23 0.147,-12.419 0.379,-18.598 0.248,-6.178 0.626,-12.338 1.02,-18.491 0.431,-6.152 0.916,-12.294 1.434,-18.431 2.153,-24.54 5.071,-48.975 8.543,-73.33 3.552,-24.342 7.51,-48.629 12.695,-72.734"
         fill="#b6b8b5"
         id="path27" />
      <path
         d="m 247.109,58.726 -5.976,49.838 -2.904,24.921 c -0.988,8.303 -1.942,16.609 -2.852,24.919 -1.879,16.613 -3.604,33.243 -5.029,49.882 -0.673,8.322 -1.296,16.646 -1.646,24.967 -0.166,4.159 -0.264,8.319 -0.178,12.456 0.032,2.067 0.112,4.131 0.3,6.161 0.197,2.005 0.47,4.096 1.155,5.732 l -2.191,1.022 c -0.981,-2.217 -1.252,-4.342 -1.538,-6.475 -0.256,-2.128 -0.396,-4.245 -0.487,-6.358 -0.156,-4.227 -0.11,-8.434 -0.004,-12.636 0.221,-8.401 0.741,-16.772 1.406,-25.127 1.292,-16.713 3.128,-33.361 5.106,-49.985 1.028,-8.309 2.102,-16.609 3.208,-24.905 l 3.583,-24.851 c 1.229,-8.279 2.447,-16.557 3.831,-24.811 1.361,-8.258 2.703,-16.517 4.216,-24.75"
         fill="#b6b8b5"
         id="path28" />
      <path
         d="m 351.402,103.35 c 0,0 -34.596,-15.909 -50.73,-17.003 -22.342,-1.515 -44.166,6.885 -56.473,10.44 v -8.593 c 12.307,-3.555 34.131,-11.955 56.473,-10.439 16.134,1.094 50.73,17.003 50.73,17.003 v 8.592"
         fill="#0b0b09"
         id="path29" />
      <path
         d="m 295.292,85.348 c 1.808,0 3.621,0.056 5.436,0.18 14.622,0.991 43.596,13.729 49.854,16.548 v -6.789 c -4.22,-1.909 -35.187,-15.712 -49.965,-16.714 -18.685,-1.267 -37.371,4.572 -49.732,8.436 -2.123,0.664 -4.088,1.278 -5.865,1.801 v 6.881 c 1.644,-0.489 3.441,-1.051 5.372,-1.655 11.285,-3.528 27.789,-8.688 44.9,-8.688 m 56.931,19.282 -1.164,-0.534 c -0.346,-0.159 -34.642,-15.861 -50.442,-16.93 -18.697,-1.266 -37.373,4.572 -49.735,8.438 -2.362,0.738 -4.526,1.413 -6.456,1.971 l -1.047,0.302 v -10.3 l 0.592,-0.172 c 1.92,-0.553 4.073,-1.227 6.424,-1.962 12.477,-3.901 31.34,-9.795 50.333,-8.506 16.1,1.09 49.599,16.423 51.018,17.075 l 0.477,0.219 v 10.399"
         fill="#0b0b09"
         id="path30" />
      <path
         d="m 349.957,120.784 c 0,0 -34.897,-15.595 -51.034,-16.688 -22.342,-1.515 -44.166,6.309 -56.472,9.865 v -8.615 c 12.306,-3.555 34.13,-11.356 56.472,-9.842 16.137,1.094 51.034,16.757 51.034,16.757 v 8.523"
         fill="#0b0b09"
         id="path31" />
      <path
         d="m 293.148,103.084 c 1.935,0 3.881,0.062 5.832,0.193 14.631,0.992 43.883,13.502 50.155,16.247 v -6.73 c -4.268,-1.885 -35.487,-15.47 -50.266,-16.471 -19.378,-1.317 -38.467,4.465 -51.098,8.29 -1.606,0.487 -3.11,0.941 -4.5,1.348 v 6.904 c 1.271,-0.374 2.634,-0.787 4.081,-1.226 11.469,-3.477 28.223,-8.555 45.796,-8.555 m 57.631,18.966 -1.156,-0.516 c -0.35,-0.156 -34.95,-15.549 -50.754,-16.62 -19.349,-1.306 -38.42,4.47 -51.042,8.295 -1.857,0.564 -3.579,1.086 -5.15,1.539 l -1.047,0.303 v -10.323 l 0.593,-0.171 c 1.547,-0.447 3.243,-0.961 5.071,-1.515 12.746,-3.859 32.002,-9.7 51.686,-8.357 16.097,1.091 49.883,16.185 51.312,16.827 l 0.487,0.218 v 10.32"
         fill="#0b0b09"
         id="path32" />
      <path
         d="m 348.511,138.218 c 0,0 -35.2,-15.28 -51.335,-16.375 -22.343,-1.514 -44.168,5.736 -56.473,9.292 v -8.638 c 12.305,-3.556 34.13,-10.76 56.473,-9.244 16.135,1.093 51.335,16.51 51.335,16.51 v 8.455"
         fill="#0b0b09"
         id="path33" />
      <path
         d="m 290.931,120.815 c 2.089,0 4.191,0.067 6.3,0.21 14.644,0.992 44.172,13.272 50.459,15.949 v -6.672 c -4.315,-1.86 -35.789,-15.23 -50.57,-16.232 -20.253,-1.377 -39.823,4.396 -52.772,8.213 -0.985,0.291 -1.929,0.569 -2.825,0.83 v 6.928 c 0.799,-0.233 1.633,-0.48 2.501,-0.737 11.692,-3.452 28.745,-8.489 46.907,-8.489 m 58.402,18.653 -1.15,-0.497 c -0.35,-0.152 -35.254,-15.237 -51.063,-16.309 -20.18,-1.37 -39.707,4.398 -52.63,8.216 -1.26,0.372 -2.448,0.723 -3.559,1.044 l -1.049,0.303 v -10.346 l 0.594,-0.17 c 1.066,-0.309 2.206,-0.645 3.408,-1 13.062,-3.849 32.798,-9.671 53.347,-8.276 16.094,1.091 50.167,15.946 51.609,16.579 l 0.493,0.214 v 10.242"
         fill="#0b0b09"
         id="path34" />
      <path
         d="m 347.065,155.652 c 0,0 -35.501,-14.965 -51.638,-16.059 -22.341,-1.515 -44.164,5.16 -56.472,8.715 v -8.66 c 12.308,-3.556 34.131,-10.162 56.472,-8.647 16.137,1.094 51.638,16.264 51.638,16.264 v 8.387"
         fill="#0b0b09"
         id="path35" />
      <path
         d="m 288.798,138.552 c 2.218,0 4.448,0.071 6.687,0.222 14.65,0.995 44.458,13.042 50.76,15.647 v -6.612 c -4.363,-1.834 -36.091,-14.988 -50.873,-15.989 -21.423,-1.457 -42.372,4.613 -54.889,8.24 l -0.708,0.203 v 6.953 l 0.523,-0.151 c 11.269,-3.27 29.346,-8.513 48.5,-8.513 m 59.088,18.336 -1.14,-0.48 c -0.353,-0.149 -35.559,-14.924 -51.374,-15.997 -21.273,-1.441 -42.146,4.612 -54.617,8.229 l -2.619,0.759 V 139.03 l 1.892,-0.548 c 12.618,-3.656 33.731,-9.774 55.457,-8.299 16.088,1.091 50.448,15.707 51.902,16.328 l 0.499,0.212 v 10.165"
         fill="#0b0b09"
         id="path36" />
      <path
         d="m 345.621,173.086 c 0,0 -35.805,-14.651 -51.94,-15.745 -22.344,-1.515 -44.167,4.585 -56.473,8.14 v -8.683 c 12.306,-3.555 34.129,-9.563 56.473,-8.048 16.135,1.094 51.94,16.018 51.94,16.018 v 8.318"
         fill="#0b0b09"
         id="path37" />
      <path
         d="m 286.584,156.286 c 2.372,0 4.76,0.075 7.153,0.237 14.66,0.994 44.748,12.811 51.063,15.346 v -6.552 c -4.407,-1.807 -36.392,-14.748 -51.175,-15.75 -22.609,-1.526 -44.619,4.681 -55.598,7.848 v 6.975 c 10.088,-2.907 28.761,-8.104 48.557,-8.104 m 59.857,18.022 -1.132,-0.462 c -0.356,-0.147 -35.865,-14.614 -51.684,-15.686 -22.774,-1.538 -45.343,4.977 -56.19,8.109 l -1.048,0.304 v -10.391 l 0.592,-0.171 c 10.854,-3.137 33.442,-9.662 56.758,-8.081 16.085,1.091 50.731,15.47 52.199,16.081 l 0.505,0.211 v 10.086"
         fill="#0b0b09"
         id="path38" />
      <path
         d="m 344.175,190.521 c 0,0 -36.106,-14.336 -52.242,-15.432 -22.341,-1.513 -44.167,4.011 -56.474,7.566 v -8.706 c 12.307,-3.555 34.133,-8.967 56.474,-7.45 16.136,1.093 52.242,15.773 52.242,15.773 v 8.249"
         fill="#0b0b09"
         id="path39" />
      <path
         d="m 284.101,174.009 c 2.679,0 5.307,0.088 7.888,0.263 14.669,0.995 45.035,12.577 51.365,15.045 v -6.491 c -4.454,-1.782 -36.694,-14.507 -51.477,-15.509 -16.234,-1.097 -34.939,1.338 -55.597,7.25 v 6.999 c 17.801,-5.065 33.54,-7.557 47.821,-7.557 m 60.893,17.72 -1.123,-0.446 c -0.359,-0.142 -36.17,-14.301 -51.994,-15.374 -16.407,-1.113 -34.789,1.352 -56.191,7.535 l -1.047,0.303 v -10.415 l 0.594,-0.171 c 21.076,-6.088 40.171,-8.608 56.756,-7.481 16.081,1.09 51.015,15.23 52.495,15.831 l 0.51,0.208 v 10.01"
         fill="#0b0b09"
         id="path40" />
      <path
         d="m 342.73,207.955 c 0,0 -36.41,-14.022 -52.546,-15.117 -22.341,-1.514 -44.165,3.436 -56.473,6.992 v -8.729 c 12.308,-3.556 34.132,-8.369 56.473,-6.853 16.136,1.092 52.546,15.525 52.546,15.525 v 8.182"
         fill="#0b0b09"
         id="path41" />
      <path
         d="m 281.82,191.741 c 2.788,0 5.601,0.088 8.42,0.278 14.68,0.997 45.323,12.346 51.669,14.745 v -6.432 c -4.501,-1.755 -36.995,-14.265 -51.781,-15.267 -22.548,-1.526 -44.283,3.429 -55.597,6.654 v 7.022 c 10.192,-2.878 28.135,-7 47.289,-7 m 61.728,17.409 -1.114,-0.43 c -0.363,-0.138 -36.477,-13.99 -52.306,-15.064 -22.622,-1.528 -44.911,3.703 -56.189,6.961 l -1.049,0.303 v -10.437 l 0.594,-0.171 c 11.238,-3.246 33.55,-8.456 56.756,-6.885 16.079,1.091 51.3,14.993 52.791,15.584 l 0.517,0.204 v 9.935"
         fill="#0b0b09"
         id="path42" />
      <path
         d="m 341.283,225.389 c 0,0 -36.711,-13.707 -52.846,-14.802 -22.343,-1.514 -44.166,2.86 -56.473,6.416 v -8.752 c 12.307,-3.555 34.13,-7.77 56.473,-6.255 16.135,1.093 52.846,15.28 52.846,15.28 v 8.113"
         fill="#0b0b09"
         id="path43" />
      <path
         d="m 279.208,209.461 c 3.051,0 6.152,0.096 9.285,0.308 14.687,0.995 45.614,12.11 51.97,14.442 v -6.371 c -4.546,-1.729 -37.296,-14.024 -52.081,-15.026 -25.3,-1.717 -48.271,3.985 -55.597,6.056 v 7.048 c 6.944,-1.937 25.412,-6.457 46.423,-6.457 m 62.896,17.11 -1.107,-0.413 c -0.368,-0.137 -36.785,-13.677 -52.615,-14.752 -25.623,-1.737 -49.486,4.448 -56.189,6.385 l -1.049,0.303 v -10.46 l 0.593,-0.171 c 6.666,-1.926 30.456,-8.069 56.756,-6.287 16.075,1.092 51.582,14.754 53.087,15.335 l 0.524,0.202 v 9.858"
         fill="#0b0b09"
         id="path44" />
      <path
         d="m 358.513,232.318 20.989,9.504 0.752,-3.522 c 3.418,-1.369 1.846,-3.52 1.846,-3.52 l -23.587,-10.94 v 8.478"
         fill="#0b0b09"
         id="path45" />
      <path
         d="m 359.783,215.382 20.999,9.992 0.623,-3.379 c 3.418,-1.368 1.678,-3.681 1.678,-3.681 l -23.3,-11.363 v 8.431"
         fill="#0b0b09"
         id="path46" />
      <path
         d="m 361.052,198.445 21.009,10.481 0.497,-3.237 c 3.418,-1.367 1.507,-3.841 1.507,-3.841 l -23.013,-11.786 v 8.383"
         fill="#0b0b09"
         id="path47" />
      <path
         d="m 362.322,181.509 21.018,10.969 0.369,-3.093 c 3.418,-1.367 1.338,-4.004 1.338,-4.004 l -22.725,-12.208 v 8.336"
         fill="#0b0b09"
         id="path48" />
      <path
         d="m 363.591,164.573 21.029,11.457 0.241,-2.949 c 3.419,-1.368 1.169,-4.165 1.169,-4.165 l -22.439,-12.631 v 8.288"
         fill="#0b0b09"
         id="path49" />
      <path
         d="m 364.862,147.637 21.037,11.945 0.113,-2.806 c 3.418,-1.368 1.001,-4.326 1.001,-4.326 l -22.151,-13.054 v 8.241"
         fill="#0b0b09"
         id="path50" />
      <path
         d="m 366.131,130.701 21.047,12.433 -0.013,-2.663 c 3.418,-1.368 0.83,-4.486 0.83,-4.486 l -21.864,-13.477 v 8.193"
         fill="#0b0b09"
         id="path51" />
      <path
         d="m 367.401,113.765 21.057,12.922 -0.142,-2.522 c 3.419,-1.367 0.662,-4.646 0.662,-4.646 L 367.401,105.62 v 8.145"
         fill="#0b0b09"
         id="path52" />
      <path
         d="m 221.5,211.67 c -0.957,0.137 -27.995,6.858 -32.776,9.297 -1.694,0.864 0.061,4.423 3.104,4.423 l 29.672,-7.567 v -6.153"
         fill="#0b0b09"
         id="path53" />
      <path
         d="m 223.434,194.714 c -0.958,0.138 -27.169,7.049 -32.646,10.295 -1.625,0.964 -0.185,4.433 2.855,4.433 l 29.791,-8.438 v -6.29"
         fill="#0b0b09"
         id="path54" />
      <path
         d="m 225.368,177.758 c -0.958,0.138 -26.357,7.194 -32.515,11.291 -1.568,1.043 -0.434,4.448 2.609,4.448 l 29.906,-9.311 v -6.428"
         fill="#0b0b09"
         id="path55" />
      <path
         d="m 227.301,160.803 c -0.958,0.137 -25.562,7.299 -32.384,12.287 -1.516,1.109 -0.682,4.46 2.362,4.46 l 30.022,-10.184 v -6.563"
         fill="#0b0b09"
         id="path56" />
      <path
         d="m 229.235,143.847 c -0.958,0.137 -24.797,7.368 -32.253,13.284 -1.473,1.168 -0.931,4.473 2.113,4.473 l 30.14,-11.056 v -6.701"
         fill="#0b0b09"
         id="path57" />
      <path
         d="m 231.168,126.892 c -0.956,0.136 -24.063,7.403 -32.12,14.279 -1.433,1.222 -1.179,4.487 1.863,4.487 l 30.257,-11.93 v -6.836"
         fill="#0b0b09"
         id="path58" />
      <path
         d="m 233.103,109.936 c -0.957,0.137 -23.365,7.408 -31.991,15.276 -1.396,1.273 -1.427,4.499 1.616,4.499 l 30.375,-12.801 v -6.974"
         fill="#0b0b09"
         id="path59" />
      <path
         d="m 235.037,92.98 c -0.957,0.138 -22.699,7.385 -31.86,16.272 -1.364,1.324 -1.676,4.513 1.367,4.513 l 30.493,-13.674 V 92.98"
         fill="#0b0b09"
         id="path60" />
      <path
         d="m 202.904,122.653 39.357,-18.111 0.658,1.503 -40.015,16.608"
         fill="#0b0b09"
         id="path61" />
      <path
         d="m 204.782,138.81 c 15.211,-7.964 28.924,-13.608 35.101,-16.93 l 4.915,0.323 -40.016,16.607"
         fill="#0b0b09"
         id="path62" />
      <path
         d="m 209.194,151.998 28.94,-12.968 5.656,0.546 -34.596,12.422"
         fill="#0b0b09"
         id="path63" />
      <path
         d="m 214.516,165.202 21.871,-9.021 9.102,-1.044 -30.973,10.065"
         fill="#0b0b09"
         id="path64" />
      <path
         d="m 210.783,182.961 23.856,-9.629 h 6.116 l -29.972,9.629"
         fill="#0b0b09"
         id="path65" />
      <path
         d="m 212.598,198.053 20.293,-7.569 7.512,-0.671 -27.805,8.24"
         fill="#0b0b09"
         id="path66" />
      <path
         d="m 211.381,214.553 19.763,-6.919 3.987,0.823 -23.75,6.096"
         fill="#0b0b09"
         id="path67" />
      <path
         d="m 210.937,106.517 c 5.994,-4.063 11.937,-8.222 18.257,-11.824 6.299,-3.619 12.436,-7.139 19.945,-8.857 l 0.47,1.572 c -6.922,1.936 -14.336,5.572 -20.022,8.005 -6.408,3.337 -12.506,7.27 -18.65,11.104"
         fill="#0b0b09"
         id="path68" />
      <path
         d="m 278.931,219.943 c -1.641,13.127 -4.512,40.201 -2.873,44.918 1.643,4.719 27.485,14.358 28.305,14.768 0.821,0.411 -2.871,3.486 -4.101,3.077 -1.23,-0.409 -16.619,-3.956 -27.621,-14.426 -8.478,-8.068 -1.505,-48.337 -1.505,-48.337 h 7.795"
         fill="#0b0b09"
         id="path69" />
      <path
         d="m 195.246,233.548 c -1.352,10.82 0.801,38.193 2.153,42.081 1.353,3.888 20.536,17.38 21.211,17.718 0.677,0.339 -0.712,0.326 -1.726,-0.011 -1.013,-0.338 -12.979,-7.538 -22.049,-16.168 -6.987,-6.649 -3.486,-42.663 -3.486,-42.663 l 3.897,-0.957"
         fill="#0b0b09"
         id="path70" />
      <path
         d="m 263.479,220.558 c -1.641,13.127 -1.504,42.32 0.138,47.038 1.64,4.717 26.8,17.912 27.62,18.324 0.82,0.41 -3.828,1.503 -5.06,1.093 -1.231,-0.409 -16.686,-5.391 -27.689,-15.861 -8.478,-8.068 -2.529,-49.597 -2.529,-49.597 l 7.52,-0.997"
         fill="#0b0b09"
         id="path71" />
      <path
         d="m 249.139,222.865 c -1.77,16.794 -0.969,41.873 0.674,46.591 1.64,4.716 26.116,17.733 27.194,18.377 0.838,0.501 -3.64,1.566 -4.871,1.154 -1.23,-0.411 -16.531,-5.52 -27.532,-15.989 -8.48,-8.068 -2.85,-48.873 -2.85,-48.873 l 7.385,-1.26"
         fill="#0b0b09"
         id="path72" />
      <path
         d="m 234.798,225.173 c -1.899,20.459 -0.431,41.423 1.21,46.143 1.64,4.717 25.438,17.541 26.769,18.433 0.863,0.577 -3.453,1.624 -4.683,1.212 -1.23,-0.41 -16.374,-5.647 -27.377,-16.118 -8.477,-8.067 -3.167,-48.147 -3.167,-48.147 l 7.248,-1.523"
         fill="#0b0b09"
         id="path73" />
      <path
         d="m 220.458,227.481 c -2.026,24.126 0.105,40.976 1.746,45.694 1.642,4.717 24.768,17.339 26.345,18.487 0.891,0.65 -3.266,1.684 -4.496,1.274 -1.231,-0.411 -16.218,-5.776 -27.221,-16.247 -8.477,-8.067 -3.485,-47.422 -3.485,-47.422 l 7.111,-1.786"
         fill="#0b0b09"
         id="path74" />
      <path
         d="m 206.117,229.788 c -2.154,27.793 0.643,40.528 2.284,45.246 1.641,4.717 24.101,17.129 25.918,18.543 0.923,0.718 -3.077,1.744 -4.308,1.334 -1.23,-0.412 -16.06,-5.906 -27.064,-16.375 -8.477,-8.067 -3.804,-46.697 -3.804,-46.697 l 6.974,-2.051"
         fill="#0b0b09"
         id="path75" />
      <path
         d="m 222.747,90.462 -6.17,2.518 6.17,-30.766 4.286,-3.489 -4.286,31.737"
         fill="#0b0b09"
         id="path76" />
      <path
         d="m 235.037,85.362 -6.17,2.519 6.99,-32.914 4.923,-1.952 -5.743,32.347"
         fill="#0b0b09"
         id="path77" />
      <path
         d="m 248.323,79.063 -6.17,2.518 c 0,0 7.379,-33.041 7.925,-33.041 0.547,0 4.924,-1.778 4.924,-1.778 l -6.679,32.301"
         fill="#0b0b09"
         id="path78" />
      <path
         d="m 264.266,74.008 -6.727,2.249 6.727,-34.007 5.985,-2.975 -5.985,34.733"
         fill="#0b0b09"
         id="path79" />
      <path
         d="m 279.751,70.075 -7.238,1.26 5.433,-34.894 5.655,-1.743 -3.85,35.377"
         fill="#0b0b09"
         id="path80" />
      <path
         d="m 293.862,68.075 -7.237,0.63 3.618,-35.022 6.191,-0.126 -2.572,34.518"
         fill="#0b0b09"
         id="path81" />
      <path
         d="m 212.271,96.57 c -0.309,-0.411 -3.282,1.743 -3.282,1.743 0,0 4.717,-26.575 5.026,-26.979 0.306,-0.402 2.563,-2.63 2.563,-2.63 l -4.307,27.866"
         fill="#0b0b09"
         id="path82" />
      <g
         clip-path="url(#Clip_3)"
         id="g83">
        <path
           d="m 289.524,365.242 c 0.701,1.064 0.917,2.279 1.079,3.511 0.424,1.932 3.198,1.589 3.716,3.482 v 0.073 c -0.483,1.967 -3.168,1.477 -3.716,3.483 0.424,1.932 3.198,1.589 3.716,3.482 v 0.074 c -0.478,1.972 -3.168,1.484 -3.716,3.491 0.424,1.932 3.198,1.589 3.716,3.482 v 0.073 c -0.478,1.973 -3.167,1.485 -3.716,3.492 0.422,1.937 3.199,1.601 3.716,3.5 v 0.105 c -0.382,1.86 -3.624,0.608 -3.905,2.542 -3.825,1.872 -26.865,3.312 -34.047,-0.621 0,-1.764 -4.302,-3.762 -4.302,-5.526 0,-1.764 3.726,-1.764 3.726,-3.528 0,-1.764 -3.726,-1.764 -3.726,-3.519 0,-1.764 3.726,-1.764 3.726,-3.528 0,-1.764 -3.726,-1.764 -3.726,-3.519 0,-1.764 3.726,-1.764 3.726,-3.519 0,-1.764 -3.726,-1.764 -3.726,-3.519 0.429,-2.002 3.175,-1.513 3.721,-3.511 z"
           fill="url(#Gradient_3)"
           id="path83"
           style="fill:url(#Gradient_3)" />
      </g>
      <path
         d="m 257.116,394.877 c 7.135,3.476 28.112,2.203 32.566,0.571 0.341,-1.057 1.626,-1.334 2.519,-1.528 0.519,-0.111 1.307,-0.28 1.307,-0.5 0,-0.366 -0.74,-0.716 -1.392,-1.026 -1.037,-0.492 -2.328,-1.104 -2.328,-2.508 0,-1.401 1.292,-2.011 2.329,-2.505 0.651,-0.308 1.391,-0.658 1.391,-1.021 0,-0.361 -0.74,-0.712 -1.392,-1.022 -1.036,-0.491 -2.328,-1.103 -2.328,-2.503 0,-1.401 1.292,-2.012 2.329,-2.504 0.651,-0.309 1.391,-0.66 1.391,-1.021 0,-0.362 -0.74,-0.712 -1.391,-1.018 -1.037,-0.494 -2.329,-1.105 -2.329,-2.502 0,-1.4 1.292,-2.011 2.329,-2.502 0.652,-0.307 1.391,-0.656 1.391,-1.016 0,-0.36 -0.74,-0.711 -1.392,-1.02 -1.036,-0.491 -2.328,-1.102 -2.328,-2.501 0,-1.05 -0.471,-2.139 -0.757,-2.704 h -32.594 c -0.384,0.846 -1.347,1.301 -2.155,1.683 -0.653,0.31 -1.391,0.659 -1.391,1.021 0,0.36 0.738,0.71 1.391,1.018 1.037,0.491 2.329,1.103 2.329,2.503 0,1.399 -1.292,2.011 -2.329,2.501 -0.653,0.308 -1.391,0.655 -1.391,1.017 0,0.36 0.738,0.709 1.391,1.017 1.037,0.492 2.329,1.103 2.329,2.503 0,1.4 -1.292,2.011 -2.329,2.502 -0.653,0.311 -1.391,0.661 -1.391,1.023 0,0.361 0.738,0.713 1.391,1.021 1.037,0.492 2.329,1.105 2.329,2.504 0,1.401 -1.292,2.014 -2.329,2.506 -0.653,0.307 -1.391,0.659 -1.391,1.02 0,0.512 1.08,1.454 1.867,2.146 1.068,0.933 2.085,1.823 2.358,2.845 m 16.076,3.827 c -6.834,0 -13.779,-0.688 -17.217,-2.572 l -0.427,-0.233 v -0.485 c 0,-0.513 -1.081,-1.457 -1.87,-2.147 -1.248,-1.092 -2.428,-2.124 -2.428,-3.381 0,-1.401 1.29,-2.011 2.33,-2.505 0.652,-0.308 1.39,-0.658 1.39,-1.021 0,-0.361 -0.738,-0.712 -1.391,-1.022 -1.039,-0.491 -2.329,-1.103 -2.329,-2.503 0,-1.401 1.29,-2.012 2.33,-2.504 0.652,-0.309 1.39,-0.66 1.39,-1.021 0,-0.362 -0.738,-0.712 -1.39,-1.018 -1.04,-0.494 -2.33,-1.105 -2.33,-2.502 0,-1.4 1.292,-2.011 2.33,-2.502 0.652,-0.307 1.39,-0.656 1.39,-1.016 0,-0.36 -0.738,-0.711 -1.391,-1.02 -1.039,-0.491 -2.329,-1.102 -2.329,-2.501 0,-1.401 1.29,-2.012 2.33,-2.504 0.652,-0.308 1.39,-0.658 1.39,-1.018 v -0.822 h 35.005 l 0.24,0.389 c 0.049,0.081 1.213,1.983 1.213,3.955 0,0.36 0.738,0.71 1.391,1.018 1.039,0.491 2.329,1.103 2.329,2.503 0,1.399 -1.29,2.011 -2.329,2.501 -0.653,0.308 -1.391,0.655 -1.391,1.017 0,0.36 0.738,0.709 1.391,1.017 1.039,0.492 2.329,1.103 2.329,2.503 0,1.4 -1.29,2.011 -2.328,2.502 -0.654,0.311 -1.392,0.661 -1.392,1.023 0,0.361 0.738,0.713 1.392,1.021 1.038,0.492 2.328,1.105 2.328,2.504 0,1.401 -1.29,2.014 -2.328,2.506 -0.654,0.307 -1.392,0.659 -1.392,1.02 0,0.366 0.738,0.716 1.392,1.027 1.038,0.492 2.328,1.104 2.328,2.507 0,1.544 -1.565,1.883 -2.604,2.105 -0.52,0.112 -1.307,0.283 -1.307,0.504 v 0.512 l -0.459,0.223 c -2.132,1.044 -9.787,1.94 -17.586,1.94"
         fill="#0b0b09"
         id="path84" />
      <path
         d="m 255.958,369.535 c 2.751,0.342 5.487,0.349 8.228,0.423 2.74,0.028 5.48,0.053 8.222,0.02 2.742,-0.004 5.484,-0.054 8.227,-0.097 2.743,-0.08 5.484,-0.087 8.242,-0.346 -2.636,0.886 -5.409,1.33 -8.161,1.624 -2.758,0.306 -5.527,0.425 -8.299,0.46 -2.771,-0.001 -5.544,-0.097 -8.308,-0.389 -2.753,-0.286 -5.54,-0.733 -8.151,-1.695"
         fill="#cdceca"
         id="path85" />
      <path
         d="m 255.958,375.455 c 2.751,0.341 5.487,0.349 8.228,0.421 2.74,0.029 5.48,0.055 8.222,0.022 2.742,-0.004 5.484,-0.054 8.227,-0.097 2.743,-0.08 5.484,-0.088 8.242,-0.346 -2.636,0.886 -5.409,1.329 -8.161,1.624 -2.758,0.306 -5.527,0.424 -8.299,0.459 -2.771,0 -5.544,-0.096 -8.308,-0.389 -2.753,-0.286 -5.54,-0.732 -8.151,-1.694"
         fill="#cdceca"
         id="path86" />
      <path
         d="m 255.958,381.266 c 2.751,0.342 5.487,0.35 8.228,0.421 2.74,0.028 5.48,0.056 8.222,0.024 2.742,-0.006 5.484,-0.054 8.227,-0.098 2.743,-0.081 5.484,-0.088 8.242,-0.347 -2.636,0.886 -5.409,1.329 -8.161,1.625 -2.758,0.305 -5.527,0.424 -8.299,0.46 -2.771,-10e-4 -5.544,-0.098 -8.308,-0.39 -2.753,-0.286 -5.54,-0.732 -8.151,-1.695"
         fill="#cdceca"
         id="path87" />
      <path
         d="m 256.739,387.419 c 2.752,0.341 5.488,0.348 8.226,0.42 2.742,0.029 5.482,0.056 8.224,0.023 2.741,-0.004 5.484,-0.054 8.227,-0.098 2.742,-0.078 5.483,-0.088 8.243,-0.345 -2.638,0.885 -5.41,1.329 -8.161,1.624 -2.759,0.304 -5.53,0.425 -8.3,0.459 -2.772,0 -5.545,-0.098 -8.308,-0.39 -2.754,-0.286 -5.538,-0.733 -8.151,-1.693"
         fill="#cdceca"
         id="path88" />
      <path
         d="m 256.26,393.64 c 2.751,0.341 5.487,0.35 8.227,0.42 2.741,0.028 5.482,0.055 8.224,0.024 2.741,-0.006 5.482,-0.056 8.226,-0.097 2.743,-0.081 5.483,-0.088 8.242,-0.347 -2.637,0.886 -5.408,1.329 -8.161,1.623 -2.758,0.306 -5.527,0.426 -8.3,0.46 -2.77,0 -5.544,-0.096 -8.307,-0.389 -2.753,-0.286 -5.54,-0.733 -8.151,-1.694"
         fill="#cdceca"
         id="path89" />
      <path
         d="m 243.643,352.005 h 60.302 v 11.692 h -60.302 z"
         fill="url(#Gradient_4)"
         id="path90"
         style="fill:url(#Gradient_4)" />
      <path
         d="m 245.244,362.13 h 57.118 v -8.503 h -57.118 z m -3.185,-11.691 h 63.489 v 14.878 h -63.489 z"
         fill="#0b0b09"
         id="path91" />
      <g
         clip-path="url(#Clip_4)"
         id="g92">
        <path
           d="m 261.638,287.115 37.254,2.636 c 0,0 0.549,38.556 0,39.924 -0.54,1.368 -3.555,8.208 -3.555,8.208 v 12.573 h -43.272 v -11.484 l -4.959,-4.374 v -42.39 l 14.363,-5.093 z"
           fill="url(#Gradient_5)"
           id="path92"
           style="fill:url(#Gradient_5)" />
      </g>
      <path
         d="m 253.71,348.82 h 39.989 v -11.286 l 0.138,-0.314 c 0.028,-0.068 2.843,-6.466 3.485,-8.034 0.312,-2.275 0.144,-23.739 -0.047,-37.909 l -35.553,-2.512 -12.972,4.603 v 40.491 l 4.96,4.374 z m 43.269,3.281 h -46.551 v -12.387 l -4.96,-4.376 v -44.287 l 15.802,-5.608 39.243,2.774 0.022,1.506 c 0.367,25.807 0.328,39.453 -0.117,40.562 -0.49,1.224 -2.834,6.562 -3.439,7.939 v 13.877"
         fill="#0b0b09"
         id="path93" />
      <path
         d="m 250.01,293.595 c 0.645,6.629 0.793,13.257 0.821,19.886 -0.023,6.628 -0.172,13.258 -0.821,19.887 -0.649,-6.629 -0.798,-13.259 -0.821,-19.887 0.027,-6.629 0.176,-13.257 0.821,-19.886"
         fill="#676867"
         id="path94" />
      <path
         d="m 284.245,333.009 c -2.539,0.356 -5.307,-0.544 -7.291,-2.382 -2.016,-1.812 -3.201,-4.543 -3.203,-7.291 0,-2.75 1.184,-5.481 3.202,-7.294 1.983,-1.839 4.753,-2.739 7.292,-2.381 -2.533,0.341 -4.798,1.524 -6.389,3.287 -1.582,1.761 -2.482,4.063 -2.465,6.388 -0.019,2.324 0.88,4.628 2.465,6.389 1.59,1.764 3.856,2.946 6.389,3.284"
         fill="#0b0b09"
         id="path95" />
      <path
         d="m 285.325,333.009 c 2.541,-0.21 4.877,-1.388 6.495,-3.177 1.629,-1.787 2.494,-4.152 2.444,-6.496 -0.059,-2.342 -1.013,-4.632 -2.678,-6.262 -1.63,-1.665 -3.92,-2.611 -6.261,-2.671 l 0.742,-0.742 c -0.044,2.578 -0.129,5.157 -0.245,7.735 -0.112,2.577 -0.281,5.155 -0.497,7.733 -0.216,-2.578 -0.384,-5.156 -0.497,-7.733 -0.117,-2.578 -0.202,-5.157 -0.245,-7.735 l -0.014,-0.721 0.756,-0.02 c 2.733,-0.078 5.475,1.06 7.419,2.995 1.937,1.946 3.067,4.689 2.989,7.421 -0.031,2.729 -1.248,5.396 -3.222,7.187 -1.957,1.811 -4.654,2.715 -7.186,2.486"
         fill="#0b0b09"
         id="path96" />
      <path
         d="m 283.166,334.154 c -2.539,0.355 -5.31,-0.544 -7.291,-2.383 -2.019,-1.811 -3.2,-4.542 -3.203,-7.291 0,-2.75 1.182,-5.481 3.201,-7.294 1.983,-1.839 4.754,-2.738 7.293,-2.381 -2.535,0.341 -4.798,1.524 -6.388,3.287 -1.584,1.761 -2.485,4.063 -2.466,6.388 -0.021,2.324 0.879,4.627 2.463,6.39 1.591,1.762 3.856,2.945 6.391,3.284"
         fill="#676867"
         id="path97" />
      <path
         d="m 284.245,334.154 c 2.542,-0.211 4.878,-1.39 6.496,-3.179 1.627,-1.786 2.494,-4.149 2.444,-6.495 -0.06,-2.342 -1.014,-4.633 -2.678,-6.262 -1.632,-1.665 -3.922,-2.611 -6.262,-2.671 l 0.743,-0.742 c -0.045,2.578 -0.13,5.156 -0.245,7.735 -0.114,2.578 -0.281,5.155 -0.498,7.734 -0.216,-2.579 -0.384,-5.156 -0.496,-7.734 -0.118,-2.579 -0.201,-5.157 -0.245,-7.735 l -0.013,-0.721 0.754,-0.02 c 2.733,-0.079 5.476,1.06 7.421,2.996 1.935,1.945 3.064,4.688 2.988,7.42 -0.032,2.729 -1.249,5.398 -3.222,7.187 -1.956,1.81 -4.654,2.715 -7.187,2.487"
         fill="#676867"
         id="path98" />
      <path
         d="m 252.949,349.639 -0.88,-33.364 h 11.067 l 1.027,34.185"
         fill="#0b0b09"
         id="path99" />
      <path
         d="m 252.069,315.626 c 1.931,-0.193 3.861,-0.277 5.79,-0.415 1.931,-0.1 3.861,-0.183 5.791,-0.24 l 0.625,-0.019 0.03,0.665 c 0.251,5.631 0.362,11.266 0.372,16.901 0.005,5.637 -0.133,11.275 -0.514,16.916 -0.554,-5.626 -0.862,-11.259 -1.029,-16.892 -0.16,-5.634 -0.22,-11.268 -0.139,-16.906 l 0.655,0.644 c -1.93,-0.057 -3.86,-0.14 -5.791,-0.239 -1.929,-0.139 -3.859,-0.222 -5.79,-0.415"
         fill="#676867"
         id="path100" />
      <path
         d="m 251.514,290.647 0.556,24.158 h 12.093 v 13.504 h 3.008 v -38.698"
         fill="#0b0b09"
         id="path101" />
      <path
         d="m 267.838,320.879 c -0.562,4.375 0.023,9.343 2.434,13.112 0.613,0.937 1.337,1.797 2.157,2.566 0.835,0.752 1.772,1.392 2.77,1.944 2.027,1.057 4.319,1.665 6.667,1.933 1.174,0.131 2.374,0.219 3.547,0.136 l 1.773,-0.067 1.726,-0.333 c 2.269,-0.523 4.458,-1.573 6.064,-3.318 1.614,-1.731 2.622,-3.998 3.143,-6.349 0.506,-2.363 0.634,-4.828 0.366,-7.253 0.403,2.408 0.417,4.892 0.035,7.331 -0.396,2.427 -1.297,4.851 -2.926,6.81 -1.619,1.975 -3.949,3.271 -6.373,3.968 l -1.846,0.464 -1.883,0.18 c -1.262,0.154 -2.511,0.134 -3.768,0.066 -2.51,-0.148 -5.056,-0.654 -7.431,-1.729 -1.177,-0.561 -2.306,-1.243 -3.335,-2.073 -1.015,-0.846 -1.931,-1.813 -2.713,-2.88 -1.556,-2.147 -2.55,-4.637 -3.12,-7.167 -0.554,-2.564 -0.762,-5.072 -0.537,-7.798 l 3.25,0.457"
         fill="#0b0b09"
         id="path102" />
      <path
         d="m 268.439,293.595 c 0.461,3.093 0.777,6.184 0.997,9.277 0.233,3.091 0.398,6.183 0.488,9.277 0.134,3.091 0.118,6.183 0.15,9.275 -0.034,3.093 -0.051,6.185 -0.186,9.277 l -0.23,-0.783 c 0.667,1.103 1.373,2.188 2.153,3.221 0.792,1.022 1.643,1.997 2.569,2.907 1.865,1.794 4.053,3.304 6.669,4.158 -2.765,0.035 -5.551,-1.056 -7.876,-2.671 -1.179,-0.799 -2.263,-1.735 -3.247,-2.759 -0.998,-1.016 -1.907,-2.114 -2.707,-3.288 l -0.21,-0.308 -0.02,-0.477 c -0.135,-3.092 -0.152,-6.184 -0.185,-9.277 0.031,-3.092 0.015,-6.184 0.149,-9.275 0.09,-3.094 0.257,-6.186 0.489,-9.277 0.22,-3.093 0.535,-6.184 0.997,-9.277"
         fill="#676867"
         id="path103" />
    </g>
    <g
       id="g5">
      <text
         style="font-weight:bold;font-size:373.333px;line-height:1;font-family:'Nunito Sans';-inkscape-font-specification:'Nunito Sans, Bold';text-align:center;letter-spacing:0px;word-spacing:0px;white-space:pre;fill:#0000ff;fill-opacity:1;stroke:#000000;stroke-width:3.78;stroke-opacity:1;paint-order:markers fill stroke;filter:url(#filter5)"
         transform="matrix(1.6882006,0,0,1.6882006,-209.46465,-155.51314)"
         x="163.71683"
         y="374.98483"
         id="text3">0</text>
      <text
         style="font-weight:bold;font-size:373.333px;line-height:1;font-family:'Nunito Sans';-inkscape-font-specification:'Nunito Sans, Bold';text-align:center;letter-spacing:0px;word-spacing:0px;white-space:pre;fill:none;fill-opacity:1;stroke:#000000;stroke-width:3.78;stroke-opacity:1;paint-order:markers fill stroke;filter:url(#filter4)"
         transform="matrix(1.6882006,0,0,1.6882006,-209.46465,-155.51314)"
         x="163.71683"
         y="374.98483"
         id="text4">0</text>
    </g>
  </g>
</svg>
